<?xml version="1.0" encoding="utf-8"?>
<!-- Generator: Adobe Illustrator 23.0.1, SVG Export Plug-In . SVG Version: 6.00 Build 0)  -->
<svg version="1.1" id="Layer_1" xmlns="http://www.w3.org/2000/svg" xmlns:xlink="http://www.w3.org/1999/xlink" x="0px" y="0px"
	 viewBox="0 0 1280 1024" style="enable-background:new 0 0 1280 1024;" xml:space="preserve">
<style type="text/css">
	.st0{fill:#B7B6B6;}
	.st1{fill:#302E2E;}
	.st2{fill:#6B6969;}
	.st3{fill:#BCBCBC;}
	.st4{fill:#C6C6C6;}
	.st5{fill:#191919;stroke:#C9C9C9;stroke-width:7;stroke-miterlimit:10;}
	.st6{fill:#DF097D;}
	.st7{fill:#F06CF4;}
	.st8{font-family:'ArialRoundedMTBold';}
	.st9{font-size:90px;}
</style>
<g>
	<path class="st0" d="M1102,541H262c-1.1,0-2-0.9-2-2V166c0-1.1,0.9-2,2-2h840c1.1,0,2,0.9,2,2v373C1104,540.1,1103.1,541,1102,541z
		"/>
</g>
<path class="st1" d="M1083,519H281c-0.55,0-1-0.45-1-1V237c0-0.55,0.45-1,1-1h802c0.55,0,1,0.45,1,1v281
	C1084,518.55,1083.55,519,1083,519z"/>
<path class="st2" d="M814,519H549c-6.6,0-12-5.4-12-12v-3c0-6.6,5.4-12,12-12h265c6.6,0,12,5.4,12,12v3C826,513.6,820.6,519,814,519
	z"/>
<path class="st2" d="M814,263H549c-6.6,0-12-5.4-12-12v-3c0-6.6,5.4-12,12-12h265c6.6,0,12,5.4,12,12v3C826,257.6,820.6,263,814,263
	z"/>
<path class="st2" d="M814,378H549c-6.6,0-12-5.4-12-12v-16c0-6.6,5.4-12,12-12h265c6.6,0,12,5.4,12,12v16
	C826,372.6,820.6,378,814,378z"/>
<g>
	<path class="st3" d="M549,460.5c-4.14,0-7.5-3.36-7.5-7.5v-42c0-4.14,3.36-7.5,7.5-7.5h265c4.14,0,7.5,3.36,7.5,7.5v42
		c0,4.14-3.36,7.5-7.5,7.5H549z"/>
	<path class="st4" d="M814,408c1.63,0,3,1.37,3,3v42c0,1.63-1.37,3-3,3H549c-1.63,0-3-1.37-3-3v-42c0-1.63,1.37-3,3-3H814 M814,399
		H549c-6.6,0-12,5.4-12,12v42c0,6.6,5.4,12,12,12h265c6.6,0,12-5.4,12-12v-42C826,404.4,820.6,399,814,399L814,399z"/>
</g>
<path class="st2" d="M456.38,485H324.62c-2.55,0-4.62-2.07-4.62-4.62V348.62c0-2.55,2.07-4.62,4.62-4.62h132.43
	c2.18,0,3.95,1.77,3.95,3.95v132.43C461,482.93,458.93,485,456.38,485z"/>
<rect x="298" y="325" class="st1" width="66" height="66"/>
<rect x="417" y="325" class="st1" width="66" height="66"/>
<rect x="298" y="439" class="st1" width="66" height="66"/>
<rect x="417" y="439" class="st1" width="66" height="66"/>
<polygon class="st5" points="364,344 417,344 417,391 461,391 461,439 417,439 417,485 364,485 364,439 320,439 320,391 364,391 "/>
<path class="st5" d="M782.5,446.5h-74c-6.05,0-11-4.95-11-11v-4.73c0-6.05,4.95-11,11-11h74c6.05,0,11,4.95,11,11v4.73
	C793.5,441.55,788.55,446.5,782.5,446.5z"/>
<path class="st5" d="M655.5,446.5h-74c-6.05,0-11-4.95-11-11v-4.73c0-6.05,4.95-11,11-11h74c6.05,0,11,4.95,11,11v4.73
	C666.5,441.55,661.55,446.5,655.5,446.5z"/>
<rect x="864" y="391" class="st3" width="74" height="74"/>
<path class="st3" d="M1037,465h-72c-0.55,0-1-0.45-1-1v-72c0-0.55,0.45-1,1-1h72c0.55,0,1,0.45,1,1v72
	C1038,464.55,1037.55,465,1037,465z"/>
<circle class="st6" cx="1001" cy="428" r="33"/>
<circle class="st6" cx="901" cy="428" r="33"/>
<text transform="matrix(1 0 0 1 482.7793 330.2671)" class="st7 st8 st9">Startsida</text>
</svg>
